<svg xmlns="http://www.w3.org/2000/svg" xmlns:xlink="http://www.w3.org/1999/xlink" preserveAspectRatio="xMidYMid meet" version="1.0" viewBox="0.0 -75.1 755.5 765.1" zoomAndPan="magnify" style="fill: rgb(0, 0, 0);" original_string_length="2337"><g><g><g id="__id0_s86jn01t4"><path d="M393.01,251.83S166.51,102.67,282.57,15.02c116.05-87.65,110.44,236.8,110.44,236.8Z" style="fill: rgb(191, 227, 232);"/></g><g id="__id1_s86jn01t4"><path d="M383.9,248.9S620.49,116.35,511.02,20.62c-109.48-95.73-127.12,228.29-127.12,228.29Z" style="fill: rgb(191, 227, 232);"/></g><g id="__id2_s86jn01t4"><path d="M384.19,185.66C275.15,178.22,0,185.66,0,420.35c0,251.05,338.33,250.99,417.03,250.99s321.95-15.31,330.19-242.16c8.24-226.85-314.98-240.25-363.03-243.52Z" style="fill: rgb(235, 192, 97);"/></g><g id="__id3_s86jn01t4"><path d="M331.09,681.18c-.67,0-1.36-.07-2.04-.21-5.32-1.12-8.72-6.35-7.6-11.67,51.26-242.93-3.07-488.08-3.62-490.52-1.2-5.3,2.12-10.58,7.42-11.78,5.3-1.2,10.57,2.12,11.78,7.42,.57,2.49,55.86,251.68,3.69,498.94-.98,4.63-5.07,7.81-9.62,7.81Z" style="fill: rgb(121, 90, 62);"/></g><g id="__id4_s86jn01t4"><path d="M440.16,690c-.67,0-1.36-.07-2.04-.21-5.32-1.12-8.72-6.35-7.6-11.67,51.31-243.16,.14-489.64-.38-492.1-1.13-5.32,2.27-10.55,7.58-11.68,5.34-1.13,10.55,2.27,11.68,7.58,.53,2.5,52.55,253.06,.39,500.25-.98,4.63-5.07,7.81-9.62,7.81Z" style="fill: rgb(121, 90, 62);"/></g><g id="__id5_s86jn01t4"><path d="M548.93,674.04c-.67,0-1.36-.07-2.04-.21-5.32-1.12-8.72-6.35-7.6-11.67,51.25-242.88,5.3-453.32,4.83-455.41-1.19-5.3,2.15-10.57,7.45-11.76,5.32-1.19,10.57,2.14,11.76,7.45,.48,2.14,47.4,216.54-4.77,463.79-.98,4.63-5.07,7.81-9.62,7.81Z" style="fill: rgb(121, 90, 62);"/></g><g id="__id6_s86jn01t4"><path d="M658.87,630.7c-.67,0-1.36-.07-2.04-.21-5.32-1.12-8.72-6.35-7.6-11.67,50.99-241.64,13.46-355.54,13.07-356.66-1.76-5.14,.96-10.74,6.1-12.51,5.13-1.76,10.73,.94,12.51,6.06,1.65,4.76,39.88,119.33-12.41,367.17-.98,4.63-5.07,7.81-9.62,7.81Z" style="fill: rgb(121, 90, 62);"/></g><g id="__id7_s86jn01t4"><path d="M96.92,403.37c10.3,0,20.17-9.06,19.69-19.69-.48-10.67-8.65-19.69-19.69-19.69-10.3,0-20.17,9.06-19.69,19.69,.48,10.67,8.65,19.69,19.69,19.69h0Z" style="fill: rgb(121, 90, 62);"/></g><g id="__id8_s86jn01t4"><path d="M197.04,403.37c10.3,0,20.17-9.06,19.69-19.69-.48-10.67-8.65-19.69-19.69-19.69-10.3,0-20.17,9.06-19.69,19.69,.48,10.67,8.65,19.69,19.69,19.69h0Z" style="fill: rgb(121, 90, 62);"/></g></g></g></svg>